<?xml version="1.0" encoding="UTF-8" standalone="no"?>
<!-- Created with Inkscape (http://www.inkscape.org/) -->
<svg
   xmlns:svg="http://www.w3.org/2000/svg"
   xmlns="http://www.w3.org/2000/svg"
   xmlns:xlink="http://www.w3.org/1999/xlink"
   version="1.0"
   width="168.41895"
   height="37.673466"
   id="svg2">
  <defs
     id="defs4">
    <linearGradient
       x1="184.42731"
       y1="431.69574"
       x2="475.68307"
       y2="431.69574"
       id="linearGradient3577"
       xlink:href="#linearGradient3571"
       gradientUnits="userSpaceOnUse" />
    <linearGradient
       x1="185.53975"
       y1="431.69574"
       x2="474.57062"
       y2="431.69574"
       id="linearGradient3171"
       xlink:href="#linearGradient3157"
       gradientUnits="userSpaceOnUse" />
    <radialGradient
       cx="330.05518"
       cy="431.69574"
       r="144.51544"
       fx="330.05518"
       fy="431.69574"
       id="radialGradient3155"
       xlink:href="#linearGradient3147"
       gradientUnits="userSpaceOnUse"
       gradientTransform="matrix(1,0,0,0.2830701,0,309.49559)" />
    <linearGradient
       id="linearGradient3147">
      <stop
         style="stop-color:#000000;stop-opacity:1"
         offset="0"
         id="stop3149" />
      <stop
         style="stop-color:#000000;stop-opacity:0"
         offset="1"
         id="stop3151" />
    </linearGradient>
    <linearGradient
       id="linearGradient3157">
      <stop
         style="stop-color:#eecdb9;stop-opacity:1"
         offset="0"
         id="stop3159" />
      <stop
         style="stop-color:#eecdb9;stop-opacity:0"
         offset="1"
         id="stop3161" />
    </linearGradient>
    <marker
       refX="0"
       refY="0"
       orient="auto"
       style="overflow:visible"
       id="Arrow1Lstart">
      <path
         d="M 0,0 L 5,-5 L -12.5,0 L 5,5 L 0,0 z "
         transform="matrix(0.8,0,0,0.8,10,0)"
         style="fill-rule:evenodd;stroke:#000000;stroke-width:1pt;marker-start:none"
         id="path3188" />
    </marker>
    <linearGradient
       id="linearGradient3571">
      <stop
         style="stop-color:#000000;stop-opacity:1"
         offset="0"
         id="stop3573" />
      <stop
         style="stop-color:#000000;stop-opacity:0"
         offset="1"
         id="stop3575" />
    </linearGradient>
  </defs>
  <g
     transform="translate(-212.93338,-494.79027)"
     id="layer1">
    <path
       d="M 219.47575,417.33175 C 208.16376,418.28375 201.66775,426.85176 204.07575,439.50775 C 206.20375,450.53974 214.77176,457.37175 226.86775,457.59575 C 227.59575,457.59575 228.37975,457.59575 229.16375,457.53975 L 232.63575,445.55575 C 232.13175,445.61175 231.62775,445.61175 231.06775,445.61175 C 224.85176,445.72375 220.81975,443.59575 218.69175,439.73175 C 218.29975,439.11575 218.01975,438.44375 217.79575,437.71575 C 216.89975,434.91575 217.23575,432.78775 218.41175,431.33175 C 219.47575,429.93175 220.81975,429.31575 223.28375,429.31575 L 232.01975,429.31575 L 228.99575,417.21975 L 221.54775,417.21975 C 220.87575,417.21975 220.14775,417.27575 219.47575,417.33175 M 232.88163,446.22775 C 233.04962,451.21175 234.39363,456.19576 237.41762,462.13175 C 237.92162,463.08375 238.42563,464.03575 239.04163,464.93175 L 250.40963,457.53975 C 248.16963,454.29175 246.82562,450.53975 246.43363,446.67575 L 254.72162,446.67575 L 254.72162,457.53975 L 268.38563,457.53975 L 268.38563,430.77175 L 254.72162,430.77175 L 254.72162,434.46775 L 248.72962,434.46775 C 248.89762,434.24375 249.12163,434.01975 249.34563,433.73975 C 251.97762,430.77175 255.33763,429.31575 259.81763,429.31575 L 271.24162,429.31575 L 268.10562,417.21975 L 256.17762,417.21975 C 242.23364,417.21975 232.32163,427.74777 232.88163,446.22775 M 290.328,429.31575 L 290.72,429.31575 L 291.896,429.31575 C 293.632,429.37175 294.752,430.88375 294.08,432.84375 C 293.856,433.40375 293.52,434.01975 292.904,434.69175 C 292.12,435.58775 290.888,436.42775 288.928,437.21175 C 288.704,437.32375 288.424,437.43575 288.2,437.54775 L 288.2,430.65975 L 274.536,430.65975 L 274.536,457.53975 L 288.144,457.53975 L 288.144,449.58775 C 289.096,449.30775 289.992,448.97175 290.888,448.63575 C 299.11999,445.44375 303.6,441.29975 306.008,435.81175 C 310.096,426.45976 305.72799,418.50775 298.448,417.44375 C 297.272,417.33175 296.096,417.21975 294.92,417.21975 L 274.816,417.21975 L 271.624,429.31575 L 290.328,429.31575 M 310.14763,457.53975 L 325.04363,457.53975 C 325.65962,457.53975 326.21963,457.48375 326.77963,457.42775 C 335.12362,456.25175 337.92362,450.59574 334.50763,444.43575 C 334.28363,444.04375 334.05962,443.65175 333.83562,443.31575 L 327.84362,433.90775 L 327.78762,433.85175 L 327.28362,433.01175 L 326.89162,432.28375 C 326.77963,432.11575 326.66762,431.94775 326.55563,431.72375 C 326.16363,430.77175 327.00363,429.48375 328.51562,429.37175 C 328.79562,429.31575 329.07563,429.31575 329.35562,429.31575 L 336.41163,429.31575 L 333.27562,417.21975 L 318.09963,417.21975 C 314.62763,417.21975 313.28362,417.61175 311.37962,419.17975 C 308.01963,421.92375 307.40363,426.06776 310.31563,431.16375 C 310.42762,431.38775 310.59563,431.61175 310.76362,431.83575 L 316.41962,440.51575 L 317.20362,441.63575 L 317.31563,441.91575 L 317.59562,442.36375 L 317.81962,442.81175 L 317.87563,443.09175 C 317.93162,443.20375 317.98762,443.37175 317.98762,443.53975 C 318.04362,444.71575 317.37162,445.44375 316.25162,445.44375 L 314.96362,445.44375 L 307.12363,445.44375 L 310.14763,457.53975 M 337.44412,446.22775 C 337.61212,451.21175 338.95613,456.19576 341.98012,462.13175 C 342.48412,463.08375 342.98813,464.03575 343.60413,464.93175 L 354.97213,457.53975 C 352.73213,454.29175 351.38812,450.53975 350.99613,446.67575 L 359.28413,446.67575 L 359.28413,457.53975 L 372.94813,457.53975 L 372.94813,430.77175 L 359.28413,430.77175 L 359.28413,434.46775 L 353.29212,434.46775 C 353.46012,434.24375 353.68413,434.01975 353.90812,433.73975 C 356.54012,430.77175 359.90013,429.31575 364.38013,429.31575 L 375.80412,429.31575 L 372.66812,417.21975 L 360.74012,417.21975 C 346.79614,417.21975 336.88413,427.74777 337.44412,446.22775 M 389.9065,457.53975 L 389.9065,417.21975 L 376.1865,417.21975 L 376.1865,457.53975 L 389.9065,457.53975 M 408.14763,417.33175 C 396.83564,418.28375 390.33963,426.85176 392.74763,439.50775 C 394.87562,450.53974 403.44364,457.37175 415.53963,457.59575 C 416.26762,457.59575 417.05163,457.59575 417.83562,457.53975 L 421.30763,445.55575 C 420.80363,445.61175 420.29962,445.61175 419.73962,445.61175 C 413.52363,445.72375 409.49162,443.59575 407.36363,439.73175 C 406.97163,439.11575 406.69162,438.44375 406.46762,437.71575 C 405.57163,434.91575 405.90763,432.78775 407.08362,431.33175 C 408.14762,429.93175 409.49163,429.31575 411.95562,429.31575 L 420.69162,429.31575 L 417.66762,417.21975 L 410.21963,417.21975 C 409.54763,417.21975 408.81962,417.27575 408.14763,417.33175 M 436.2815,457.53975 L 436.2815,417.21975 L 422.5615,417.21975 L 422.5615,457.53975 L 436.2815,457.53975 M 441.97863,464.59575 L 453.68263,457.48375 C 452.84263,456.25175 452.78663,455.85975 452.78663,453.05975 L 452.84262,438.94775 L 451.33062,434.29975 L 460.90663,446.50775 L 460.90663,457.53975 L 474.57063,457.53975 L 474.57063,417.21975 L 461.07463,417.21975 L 461.07463,427.63575 L 453.17863,417.21975 L 439.51463,417.21975 L 439.51463,456.58775 C 439.51463,460.22775 440.18663,462.35575 441.97863,464.59575"
       transform="matrix(0.4769016,0,0,0.6395443,155.02884,235.11929)"
       style="font-size:56px;text-align:start;writing-mode:lr-tb;text-anchor:start;fill:#000000;fill-opacity:0.52469135;font-family:RoostHeavy"
       id="flowRoot2160" />
    <path
       d="M 258.58244,500.56314 C 253.18773,501.17198 250.08977,506.6516 251.23815,514.74567 C 252.253,521.80112 256.3391,526.17049 262.10769,526.31375 C 262.45488,526.31375 262.82877,526.31375 263.20266,526.27793 L 264.85846,518.61363 C 264.6181,518.64945 264.37775,518.64945 264.11068,518.64945 C 261.14626,518.72108 259.22339,517.36013 258.20855,514.88893 C 258.0216,514.49497 257.88807,514.0652 257.78124,513.59961 C 257.35394,511.80888 257.51418,510.44793 258.07501,509.51676 C 258.58244,508.62139 259.22339,508.22743 260.39848,508.22743 L 264.56469,508.22743 L 263.12254,500.49151 L 259.57058,500.49151 C 259.2501,500.49151 258.90291,500.52732 258.58244,500.56314 M 264.97572,519.04341 C 265.05584,522.2309 265.6968,525.41839 267.13894,529.21472 C 267.3793,529.82357 267.61967,530.43241 267.91344,531.00544 L 273.33485,526.27793 C 272.26659,524.20069 271.62563,521.80112 271.43869,519.32992 L 275.39125,519.32992 L 275.39125,526.27793 L 281.90764,526.27793 L 281.90764,509.15861 L 275.39125,509.15861 L 275.39125,511.52237 L 272.53365,511.52237 C 272.61377,511.37911 272.7206,511.23585 272.82743,511.05678 C 274.08263,509.15861 275.68502,508.22743 277.82154,508.22743 L 283.26966,508.22743 L 281.7741,500.49151 L 276.08562,500.49151 C 269.43571,500.49151 264.70866,507.22464 264.97572,519.04341 M 292.37199,508.22743 L 292.55893,508.22743 L 293.11977,508.22743 C 293.94767,508.26325 294.4818,509.23024 294.16132,510.48375 C 294.0545,510.84189 293.89426,511.23585 293.60049,511.66562 C 293.2266,512.23866 292.63905,512.77587 291.70433,513.27728 C 291.5975,513.34891 291.46397,513.42053 291.35714,513.49216 L 291.35714,509.08698 L 284.84076,509.08698 L 284.84076,526.27793 L 291.33044,526.27793 L 291.33044,521.19228 C 291.78445,521.0132 292.21175,520.79832 292.63905,520.58343 C 296.5649,518.54201 298.70143,515.89173 299.84981,512.38191 C 301.79938,506.4009 299.71627,501.31524 296.24443,500.63476 C 295.68359,500.56314 295.12276,500.49151 294.56192,500.49151 L 284.97429,500.49151 L 283.45202,508.22743 L 292.37199,508.22743 M 301.824,526.27793 L 308.92793,526.27793 C 309.22169,526.27793 309.48876,526.24212 309.75583,526.2063 C 313.73509,525.4542 315.07042,521.83693 313.44132,517.89734 C 313.3345,517.64664 313.22767,517.39594 313.12084,517.18105 L 310.26325,511.16422 L 310.23654,511.12841 L 309.99618,510.59119 L 309.80924,510.1256 C 309.75583,510.01816 309.70241,509.91072 309.649,509.76746 C 309.46206,509.15861 309.86266,508.33488 310.58373,508.26325 C 310.71726,508.22743 310.8508,508.22743 310.98432,508.22743 L 314.34935,508.22743 L 312.85378,500.49151 L 305.61632,500.49151 C 303.96052,500.49151 303.31956,500.74221 302.41154,501.74501 C 300.80916,503.49992 300.51538,506.1502 301.90412,509.40931 C 301.95753,509.55257 302.03765,509.69583 302.11777,509.83909 L 304.81512,515.39033 L 305.18901,516.10662 L 305.24243,516.28569 L 305.37596,516.57221 L 305.48279,516.85872 L 305.5095,517.0378 C 305.5362,517.10943 305.56291,517.21687 305.56291,517.32431 C 305.58961,518.07642 305.26913,518.54201 304.735,518.54201 L 304.12076,518.54201 L 300.38185,518.54201 L 301.824,526.27793 M 314.84174,519.04341 C 314.92186,522.2309 315.56282,525.41839 317.00497,529.21472 C 317.24533,529.82357 317.48569,530.43241 317.77946,531.00544 L 323.20088,526.27793 C 322.13262,524.20069 321.49166,521.80112 321.30472,519.32992 L 325.25728,519.32992 L 325.25728,526.27793 L 331.77366,526.27793 L 331.77366,509.15861 L 325.25728,509.15861 L 325.25728,511.52237 L 322.39968,511.52237 C 322.4798,511.37911 322.58663,511.23585 322.69345,511.05678 C 323.94865,509.15861 325.55105,508.22743 327.68757,508.22743 L 333.13569,508.22743 L 331.64012,500.49151 L 325.95164,500.49151 C 319.30173,500.49151 314.57468,507.22464 314.84174,519.04341 M 339.86113,526.27793 L 339.86113,500.49151 L 333.31804,500.49151 L 333.31804,526.27793 L 339.86113,526.27793 M 348.56036,500.56314 C 343.16565,501.17198 340.06769,506.6516 341.21607,514.74567 C 342.23092,521.80112 346.31702,526.17049 352.08562,526.31375 C 352.43279,526.31375 352.80669,526.31375 353.18058,526.27793 L 354.83638,518.61363 C 354.59603,518.64945 354.35566,518.64945 354.0886,518.64945 C 351.12418,518.72108 349.20131,517.36013 348.18647,514.88893 C 347.99952,514.49497 347.86598,514.0652 347.75916,513.59961 C 347.33186,511.80888 347.4921,510.44793 348.05293,509.51676 C 348.56035,508.62139 349.20131,508.22743 350.37639,508.22743 L 354.54261,508.22743 L 353.10046,500.49151 L 349.5485,500.49151 C 349.22802,500.49151 348.88083,500.52732 348.56036,500.56314 M 361.97745,526.27793 L 361.97745,500.49151 L 355.43436,500.49151 L 355.43436,526.27793 L 361.97745,526.27793 M 364.69442,530.79056 L 370.27607,526.24212 C 369.87548,525.4542 369.84877,525.2035 369.84877,523.41277 L 369.87547,514.38753 L 369.1544,511.41492 L 373.72121,519.22248 L 373.72121,526.27793 L 380.23759,526.27793 L 380.23759,500.49151 L 373.80133,500.49151 L 373.80133,507.153 L 370.03571,500.49151 L 363.51933,500.49151 L 363.51933,525.66909 C 363.51933,527.99703 363.83981,529.35798 364.69442,530.79056"
       style="font-size:56px;text-align:start;writing-mode:lr-tb;text-anchor:start;opacity:0.75;fill:#eecdb9;fill-opacity:1;stroke:#000000;stroke-width:1.2287451;stroke-linecap:round;stroke-linejoin:round;stroke-miterlimit:4;stroke-dashoffset:1.11245408;stroke-opacity:1;font-family:RoostHeavy"
       id="flowRoot2168" />
    <path
       d="M 224.18533,527.56673 C 226.56739,526.62304 228.50288,525.7741 228.48645,525.68023 C 228.47002,525.58635 225.44134,523.80777 221.75604,521.72785 L 215.0555,517.94616 L 222.62289,517.85393 L 230.19028,517.76168 L 223.19964,507.93695 L 216.209,498.11221 L 226.69366,504.66285 L 237.17831,511.21349 L 237.27674,504.08626 L 237.37517,496.95902 L 241.5093,503.34628 C 243.78307,506.85927 245.68772,509.73271 245.74186,509.7317 C 245.796,509.7307 246.65661,507.88449 247.65433,505.629 L 249.46836,501.52811 L 249.47531,507.17459 L 249.48227,512.82107 L 247.54533,513.02747 C 246.48001,513.14098 245.04698,513.39759 244.3608,513.59771 C 243.67462,513.79783 243.05322,513.92683 242.97991,513.88437 C 242.9066,513.84191 242.45712,512.80862 241.98109,511.58817 C 241.50505,510.36772 241.05962,509.36895 240.99123,509.36868 C 240.92284,509.36841 240.49006,510.80016 240.02948,512.55034 C 239.56891,514.30053 239.13763,515.79003 239.07107,515.86035 C 239.00453,515.93067 237.09901,514.995 234.83659,513.78107 C 232.57416,512.56715 230.69426,511.60095 230.65902,511.63398 C 230.62377,511.667 231.66328,513.42127 232.96904,515.53235 C 234.2748,517.64342 235.26882,519.43323 235.17798,519.50969 C 235.08714,519.58615 233.47888,520.00318 231.60406,520.43641 C 229.72925,520.86965 228.26754,521.28694 228.35582,521.36373 C 228.4441,521.44051 229.55725,521.85568 230.82947,522.28631 C 232.1017,522.71695 233.14147,523.16177 233.14008,523.27481 C 233.13868,523.38785 232.96159,524.0063 232.74654,524.64913 C 232.44094,525.56271 231.97359,528.24904 231.96305,529.15286 C 231.96216,529.22896 229.23734,529.28926 225.90789,529.28688 L 219.85435,529.28254 L 224.18533,527.56673 z M 236.22075,528.43535 C 235.60484,524.22456 237.66368,519.56502 241.26994,517.00813 C 243.47215,515.44673 246.52528,514.36178 248.74402,514.35215 L 249.48227,514.34895 L 249.48227,515.15623 L 249.48227,515.96351 L 248.44873,516.04389 C 246.16756,516.22128 243.68023,517.92243 242.62909,520.02409 C 242.15987,520.96227 242.09989,521.30204 242.09989,523.02203 C 242.09989,524.8405 242.14022,525.03869 242.74444,526.18973 C 243.16977,526.99997 243.76105,527.73623 244.48286,528.35441 L 245.57672,529.29122 L 240.96134,529.29122 L 236.34594,529.29122 L 236.22075,528.43535 z "
       style="fill:#040302;fill-opacity:0.40490794"
       id="path3670" />
    <path
       d="M 222.6783,526.01305 C 225.06035,525.06936 226.99585,524.22043 226.97942,524.12655 C 226.96299,524.03267 223.9343,522.2541 220.249,520.17418 L 213.54846,516.39249 L 221.11585,516.30025 L 228.68325,516.20801 L 221.6926,506.38327 L 214.70197,496.55854 L 225.18663,503.10917 L 235.67128,509.65982 L 235.76971,502.53258 L 235.86814,495.40535 L 240.00227,501.7926 C 242.27603,505.30559 244.18069,508.17903 244.23483,508.17803 C 244.28896,508.17703 245.14957,506.33081 246.14729,504.07532 L 247.96132,499.97444 L 247.96828,505.62092 L 247.97523,511.2674 L 246.0383,511.47379 C 244.97298,511.5873 243.53994,511.84392 242.85377,512.04404 C 242.16759,512.24416 241.54619,512.37315 241.47287,512.3307 C 241.39956,512.28823 240.95009,511.25494 240.47406,510.0345 C 239.99802,508.81404 239.55258,507.81528 239.4842,507.81501 C 239.41581,507.81474 238.98303,509.24649 238.52245,510.99666 C 238.06188,512.74685 237.63059,514.23636 237.56404,514.30667 C 237.49749,514.377 235.59197,513.44133 233.32955,512.2274 C 231.06713,511.01347 229.18723,510.04728 229.15198,510.0803 C 229.11674,510.11333 230.15625,511.86759 231.462,513.97867 C 232.76776,516.08975 233.76178,517.87955 233.67094,517.95602 C 233.5801,518.03247 231.97184,518.4495 230.09703,518.88274 C 228.22221,519.31597 226.7605,519.73327 226.84878,519.81005 C 226.93707,519.88684 228.05021,520.302 229.32244,520.73264 C 230.59466,521.16327 231.63443,521.60809 231.63304,521.72114 C 231.63165,521.83418 231.45455,522.45262 231.23951,523.09546 C 230.9339,524.00903 230.46656,526.69537 230.45601,527.59919 C 230.45513,527.67528 227.7303,527.73559 224.40085,527.73321 L 218.34732,527.72887 L 222.6783,526.01305 z M 234.71372,526.88167 C 234.0978,522.67088 236.15665,518.01134 239.76291,515.45445 C 241.96512,513.89306 245.01824,512.8081 247.23699,512.79848 L 247.97523,512.79527 L 247.97523,513.60256 L 247.97523,514.40984 L 246.9417,514.49022 C 244.66052,514.66761 242.1732,516.36876 241.12206,518.47042 C 240.65284,519.40859 240.59286,519.74837 240.59286,521.46835 C 240.59286,523.28682 240.63318,523.48501 241.23741,524.63605 C 241.66274,525.4463 242.25401,526.18256 242.97583,526.80073 L 244.06969,527.73754 L 239.4543,527.73754 L 234.83891,527.73754 L 234.71372,526.88167 z "
       style="opacity:0.77659571;fill:#eecdb9;fill-opacity:1;stroke:#000000;stroke-width:1.2301507;stroke-miterlimit:4;stroke-dasharray:none;stroke-opacity:1"
       id="path3646" />
  </g>
</svg>
